<?xml version="1.0" encoding="UTF-8"?>
<svg id="Layer_1" data-name="Layer 1" xmlns="http://www.w3.org/2000/svg" viewBox="0 0 512 512">
  <defs>
  </defs>
  <rect class="cls-2" width="512" height="512"/>
  <path class="cls-2" d="M53,70h407c4.6-.93,10.37,6.06,11,10v354c-1.43,6.52-5.28,8.49-11,11-135.7.14-271.37-.19-407-1-6.56-1.91-7.58-3.54-9-10-.94-116.42-.94-237.52,0-354,1.22-4.92,3.57-9.48,9-10Z"/>
  <path d="M460,445l-403.62.07c-1.49.55-2.66-.86-3.38-1.07l407,1Z"/>
  <path d="M44,434c-.12-.57-1.67-1.97-1.07-3.38V83.38c-.58-1.45.92-2.75,1.07-3.38v354Z"/>
  <path class="cls-1" d="M380,104v53h59v221.5c0,13.71-18.47,30.86-32.52,30.48l-297.03.06c-14.7,1.21-34.45-16.12-34.45-30.55V104h305Z"/>
  <path class="cls-2" d="M229,168h198v210.5c0,6.4-11.97,18.5-18.5,18.5H137c1.9-2.98,4.1-5.7,5.49-9.01s3.51-11.2,3.51-14.49v-228.5h71.5l11.5,23Z"/>
  <path class="cls-2" d="M369,116c.5.36-1,1.29-1,1.5v37c0,.16,1.73,2.5-.5,2.5h-130.5c-3.45-8.12-7.16-17.05-12.5-24h-90.5v243.5c0,.59-2.3,7.09-2.82,8.18-7.97,16.51-33,16.47-41.63.27-.62-1.17-2.55-5.59-2.55-6.45V116h282Z"/>
  <path class="cls-1" d="M222,235.5c5.48-48.67,66.94-72.2,105.01-41.01,20.96,17.17,25.97,41.35,23.98,67.52,2.13.2,12.01-.89,12.01,1.49v121c0,.11-1.39,1.5-1.5,1.5h-150c-.11,0-1.5-1.39-1.5-1.5v-122.5h12c.69-8.45-.93-18.23,0-26.5Z"/>
  <path class="cls-2" d="M351,274v12h-18c.2,2.13-.88,12,1.5,12h16.5v52h-18v12h18v12h-129v-12h17v-12h-17v-52h17v-12h-17v-12h129Z"/>
  <path class="cls-2" d="M316,262h-59v-21.5c0-2.22,2.63-7.91,3.84-10.16,11.16-20.79,42.23-19.48,51.9,1.43.56,1.22,3.27,9.09,3.27,9.73v20.5Z"/>
  <path class="cls-2" d="M339,262h-12v-25.5c0-1.41-3.58-9.62-4.56-11.44-14.1-26.16-50.91-28.63-68.97-5.08-3.03,3.95-8.48,15.85-8.48,20.52v21.5h-12c2.17-14.97-1.12-26.22,5.81-40.69,17.74-37.05,71.35-39.52,92.61-4.24,2.74,4.55,7.58,15.35,7.58,20.42v24.5Z"/>
  <path class="cls-1" d="M304,362h-35v-37.5c0-.68-5.23-6.16-5.88-12.11-3.6-32.48,44.29-35.84,46.8-4.76.66,8.12-5.92,15.95-5.92,16.87v37.5Z"/>
  <path class="cls-3" d="M280,319.5c-.25-.88-3.81-3.06-4.55-5.44-6.58-21.13,27.97-21.24,22.09-1.01-.99,3.42-5.54,6.03-5.54,6.46v30.5h-12c-1.44-7.81,1.93-23.78,0-30.5Z"/>
</svg>